<mxfile host="65bd71144e">
    <diagram id="GvPcuImVZgzJP4J6IXKm" name="Page-1">
        <mxGraphModel dx="7577" dy="10354" grid="0" gridSize="10" guides="1" tooltips="1" connect="1" arrows="1" fold="1" page="0" pageScale="1" pageWidth="850" pageHeight="1100" math="0" shadow="0">
            <root>
                <mxCell id="0"/>
                <mxCell id="1" parent="0"/>
                <mxCell id="359" value="Engine Life Cycle" style="rounded=1;whiteSpace=wrap;html=1;strokeWidth=2;fontSize=35;" parent="1" vertex="1">
                    <mxGeometry x="-5646.5" y="-9213" width="380" height="131" as="geometry"/>
                </mxCell>
                <mxCell id="460" style="edgeStyle=none;html=1;exitX=0.5;exitY=1;exitDx=0;exitDy=0;entryX=0.5;entryY=0;entryDx=0;entryDy=0;" edge="1" parent="1" source="363" target="447">
                    <mxGeometry relative="1" as="geometry"/>
                </mxCell>
                <mxCell id="363" value="&lt;b&gt;Renderer&lt;/b&gt;" style="rounded=1;whiteSpace=wrap;html=1;fontSize=15;align=center;fillColor=#4D4D4D;" parent="1" vertex="1">
                    <mxGeometry x="-5617.25" y="-8707" width="116" height="61" as="geometry"/>
                </mxCell>
                <mxCell id="462" style="edgeStyle=none;html=1;exitX=0.5;exitY=1;exitDx=0;exitDy=0;entryX=0.5;entryY=0;entryDx=0;entryDy=0;" edge="1" parent="1" source="447" target="461">
                    <mxGeometry relative="1" as="geometry"/>
                </mxCell>
                <mxCell id="447" value="&lt;b&gt;Update&lt;/b&gt;" style="rounded=1;whiteSpace=wrap;html=1;fontSize=15;align=center;fillColor=#0050EF;arcSize=60;absoluteArcSize=0;fontColor=#ffffff;strokeColor=none;" vertex="1" parent="1">
                    <mxGeometry x="-5618" y="-8493" width="116" height="61" as="geometry"/>
                </mxCell>
                <mxCell id="481" style="edgeStyle=none;html=1;exitX=0.5;exitY=1;exitDx=0;exitDy=0;entryX=0.5;entryY=0;entryDx=0;entryDy=0;" edge="1" parent="1" source="448" target="480">
                    <mxGeometry relative="1" as="geometry"/>
                </mxCell>
                <mxCell id="448" value="&lt;b&gt;Listeners&lt;/b&gt;" style="rounded=1;whiteSpace=wrap;html=1;fontSize=15;align=center;fillColor=#4D4D4D;" vertex="1" parent="1">
                    <mxGeometry x="-4869" y="-8707" width="116" height="61" as="geometry"/>
                </mxCell>
                <mxCell id="470" style="edgeStyle=none;html=1;exitX=0.5;exitY=1;exitDx=0;exitDy=0;entryX=0.5;entryY=0;entryDx=0;entryDy=0;" edge="1" parent="1" source="457" target="458">
                    <mxGeometry relative="1" as="geometry"/>
                </mxCell>
                <mxCell id="457" value="&lt;b&gt;Scenes&lt;/b&gt;" style="rounded=1;whiteSpace=wrap;html=1;fontSize=15;align=center;fillColor=#4D4D4D;" vertex="1" parent="1">
                    <mxGeometry x="-5377" y="-8707" width="116" height="61" as="geometry"/>
                </mxCell>
                <mxCell id="471" style="edgeStyle=none;html=1;exitX=0.5;exitY=1;exitDx=0;exitDy=0;entryX=0.5;entryY=0;entryDx=0;entryDy=0;" edge="1" parent="1" source="458" target="459">
                    <mxGeometry relative="1" as="geometry"/>
                </mxCell>
                <mxCell id="458" value="&lt;b&gt;Scene&lt;/b&gt;" style="rounded=1;whiteSpace=wrap;html=1;fontSize=15;align=center;fillColor=#4D4D4D;" vertex="1" parent="1">
                    <mxGeometry x="-5377" y="-8593" width="116" height="61" as="geometry"/>
                </mxCell>
                <mxCell id="472" style="edgeStyle=none;html=1;exitX=0.5;exitY=1;exitDx=0;exitDy=0;entryX=0.5;entryY=0;entryDx=0;entryDy=0;" edge="1" parent="1" source="459" target="463">
                    <mxGeometry relative="1" as="geometry"/>
                </mxCell>
                <mxCell id="459" value="&lt;b&gt;Update&lt;/b&gt;" style="rounded=1;whiteSpace=wrap;html=1;fontSize=15;align=center;fillColor=#0050EF;arcSize=60;absoluteArcSize=0;fontColor=#ffffff;strokeColor=none;" vertex="1" parent="1">
                    <mxGeometry x="-5377" y="-8493" width="116" height="61" as="geometry"/>
                </mxCell>
                <mxCell id="461" value="" style="rounded=1;whiteSpace=wrap;html=1;fontSize=15;align=center;fillColor=#4D4D4D;recursiveResize=0;container=1;dropTarget=1;" vertex="1" parent="1">
                    <mxGeometry x="-5646.5" y="-8387" width="174.5" height="476" as="geometry"/>
                </mxCell>
                <mxCell id="452" value="&lt;b style=&quot;color: rgb(240, 240, 240);&quot;&gt;Global Timer&lt;br&gt;(negligible)&lt;/b&gt;" style="rounded=1;whiteSpace=wrap;html=1;fontSize=15;align=center;fillColor=#0050EF;arcSize=60;absoluteArcSize=0;fontColor=#ffffff;strokeColor=none;" vertex="1" parent="461">
                    <mxGeometry x="27.5" y="21" width="116" height="61" as="geometry"/>
                </mxCell>
                <mxCell id="453" value="&lt;b style=&quot;color: rgb(240, 240, 240);&quot;&gt;Global cycle timer&lt;br&gt;(negligible)&lt;/b&gt;" style="rounded=1;whiteSpace=wrap;html=1;fontSize=15;align=center;fillColor=#0050EF;arcSize=60;absoluteArcSize=0;fontColor=#ffffff;strokeColor=none;" vertex="1" parent="461">
                    <mxGeometry x="29.25" y="91" width="116" height="61" as="geometry"/>
                </mxCell>
                <mxCell id="454" value="&lt;b&gt;scene update&lt;/b&gt;" style="rounded=1;whiteSpace=wrap;html=1;fontSize=15;align=center;fillColor=#0050EF;arcSize=60;absoluteArcSize=0;fontColor=#ffffff;strokeColor=none;" vertex="1" parent="461">
                    <mxGeometry x="29.25" y="165" width="116" height="61" as="geometry"/>
                </mxCell>
                <mxCell id="455" value="&lt;b&gt;GlDraw&lt;/b&gt;" style="rounded=1;whiteSpace=wrap;html=1;fontSize=15;align=center;fillColor=#0050EF;arcSize=60;absoluteArcSize=0;fontColor=#ffffff;strokeColor=none;" vertex="1" parent="461">
                    <mxGeometry x="27.5" y="242" width="116" height="61" as="geometry"/>
                </mxCell>
                <mxCell id="456" value="&lt;b&gt;Mouse resets&lt;br&gt;&lt;/b&gt;&lt;b style=&quot;color: rgb(240, 240, 240);&quot;&gt;(negligible)&lt;/b&gt;&lt;b&gt;&lt;br&gt;&lt;/b&gt;" style="rounded=1;whiteSpace=wrap;html=1;fontSize=15;align=center;fillColor=#0050EF;arcSize=60;absoluteArcSize=0;fontColor=#ffffff;strokeColor=none;" vertex="1" parent="461">
                    <mxGeometry x="24.5" y="324" width="116" height="61" as="geometry"/>
                </mxCell>
                <mxCell id="463" value="" style="rounded=1;whiteSpace=wrap;html=1;fontSize=15;align=center;fillColor=#4D4D4D;recursiveResize=0;container=1;dropTarget=1;" vertex="1" parent="1">
                    <mxGeometry x="-5406.25" y="-8393" width="174.5" height="476" as="geometry"/>
                </mxCell>
                <mxCell id="464" value="&lt;b style=&quot;color: rgb(240, 240, 240);&quot;&gt;handle events&lt;/b&gt;" style="rounded=1;whiteSpace=wrap;html=1;fontSize=15;align=center;fillColor=#0050EF;arcSize=60;absoluteArcSize=0;fontColor=#ffffff;strokeColor=none;" vertex="1" parent="463">
                    <mxGeometry x="29.25" y="171" width="116" height="61" as="geometry"/>
                </mxCell>
                <mxCell id="465" value="&lt;font color=&quot;#f0f0f0&quot;&gt;&lt;b&gt;animations&lt;/b&gt;&lt;/font&gt;" style="rounded=1;whiteSpace=wrap;html=1;fontSize=15;align=center;fillColor=#0050EF;arcSize=60;absoluteArcSize=0;fontColor=#ffffff;strokeColor=none;" vertex="1" parent="463">
                    <mxGeometry x="29.25" y="92" width="116" height="61" as="geometry"/>
                </mxCell>
                <mxCell id="451" value="&lt;b style=&quot;color: rgb(240, 240, 240);&quot;&gt;Time Intervals&lt;/b&gt;" style="rounded=1;whiteSpace=wrap;html=1;fontSize=15;align=center;fillColor=#0050EF;arcSize=60;absoluteArcSize=0;fontColor=#ffffff;strokeColor=none;" vertex="1" parent="463">
                    <mxGeometry x="29.25" y="16" width="116" height="61" as="geometry"/>
                </mxCell>
                <mxCell id="476" style="edgeStyle=none;html=1;exitX=0.5;exitY=1;exitDx=0;exitDy=0;entryX=0.5;entryY=0;entryDx=0;entryDy=0;" edge="1" parent="1" source="473" target="475">
                    <mxGeometry relative="1" as="geometry"/>
                </mxCell>
                <mxCell id="473" value="&lt;b&gt;Events&lt;/b&gt;" style="rounded=1;whiteSpace=wrap;html=1;fontSize=15;align=center;fillColor=#4D4D4D;" vertex="1" parent="1">
                    <mxGeometry x="-5122" y="-8707" width="116" height="61" as="geometry"/>
                </mxCell>
                <mxCell id="474" style="edgeStyle=none;html=1;exitX=1;exitY=0.5;exitDx=0;exitDy=0;entryX=0;entryY=0.5;entryDx=0;entryDy=0;" edge="1" parent="1" source="454" target="459">
                    <mxGeometry relative="1" as="geometry"/>
                </mxCell>
                <mxCell id="475" value="&lt;b&gt;HandleEvents&lt;/b&gt;" style="rounded=1;whiteSpace=wrap;html=1;fontSize=15;align=center;fillColor=#0050EF;arcSize=60;absoluteArcSize=0;fontColor=#ffffff;strokeColor=none;" vertex="1" parent="1">
                    <mxGeometry x="-5122" y="-8493" width="116" height="61" as="geometry"/>
                </mxCell>
                <mxCell id="477" style="edgeStyle=none;html=1;exitX=1;exitY=0.5;exitDx=0;exitDy=0;entryX=0;entryY=0.5;entryDx=0;entryDy=0;" edge="1" parent="1" source="464" target="475">
                    <mxGeometry relative="1" as="geometry"/>
                </mxCell>
                <mxCell id="479" style="edgeStyle=none;html=1;exitX=0;exitY=0.5;exitDx=0;exitDy=0;entryX=0.5;entryY=0;entryDx=0;entryDy=0;" edge="1" parent="1" source="478" target="448">
                    <mxGeometry relative="1" as="geometry"/>
                </mxCell>
                <mxCell id="478" value="&lt;b&gt;Listen events&lt;/b&gt;" style="rounded=1;whiteSpace=wrap;html=1;fontSize=15;align=center;fillColor=#99004D;arcSize=60;absoluteArcSize=0;fontColor=#ffffff;strokeColor=#A50040;" vertex="1" parent="1">
                    <mxGeometry x="-4589" y="-8925" width="116" height="61" as="geometry"/>
                </mxCell>
                <mxCell id="480" value="&lt;b&gt;Event&lt;br&gt;Dispatcher&lt;/b&gt;" style="rounded=1;whiteSpace=wrap;html=1;fontSize=15;align=center;fillColor=#0050EF;arcSize=60;absoluteArcSize=0;fontColor=#ffffff;strokeColor=none;" vertex="1" parent="1">
                    <mxGeometry x="-4869" y="-8498" width="116" height="61" as="geometry"/>
                </mxCell>
            </root>
        </mxGraphModel>
    </diagram>
</mxfile>